<svg width="24" height="24" viewBox="0 0 24 24" fill="none" xmlns="http://www.w3.org/2000/svg">
<path d="M16.1017 17.93L13.4055 20.5347C12.9375 21.0035 12.2925 21.1985 11.5815 21.1985C10.8705 21.1985 10.2262 21.0035 9.75747 20.5347L5.42547 16.1757C4.96047 15.707 4.72272 15.023 4.72272 14.312C4.72272 13.598 4.96047 12.953 5.42547 12.488L9.74547 8.10498C10.2105 7.64073 10.8705 7.46073 11.5815 7.46073C12.2925 7.46073 12.9375 7.65573 13.4055 8.12448L16.1017 10.7292C16.617 11.2452 17.469 11.2265 18.0037 10.6902C18.5347 10.1555 18.555 9.30423 18.039 8.78823L15.4342 6.15498C14.7595 5.48945 13.9125 5.0253 12.9885 4.81473L15.4537 2.31498C15.9697 1.79973 15.954 0.947731 15.4185 0.412981C14.883 -0.121769 14.0317 -0.138269 13.5165 0.373981L3.41472 10.4757C2.43447 11.4597 1.92297 12.8105 1.92297 14.3105C1.92297 15.8075 2.43522 17.2055 3.41472 18.1865L7.76247 22.5455C8.74272 23.5257 10.0987 23.9982 11.5987 23.9982C13.095 23.9982 14.4495 23.486 15.4305 22.5065L18.0397 19.8657C18.5557 19.3535 18.5355 18.503 18.0007 17.9675C17.466 17.432 16.614 17.4125 16.1025 17.9285L16.1017 17.93ZM20.8117 13.0115H10.6635C9.96447 13.0115 9.39447 13.6122 9.39447 14.3547C9.39447 15.098 9.96447 15.7025 10.6635 15.7025H20.8117C21.5115 15.7025 22.0815 15.0972 22.0815 14.3547C22.0815 13.613 21.5115 13.0115 20.8117 13.0115Z" fill="#2C2D37"/>
</svg>
