<svg width="24" height="24" viewBox="0 0 24 24" fill="none" xmlns="http://www.w3.org/2000/svg">
<path d="M4.70556 0.00601196C2.12036 0.00601196 0.0045166 2.1218 0.0045166 4.70706V19.2952C0.0045166 21.8805 2.12031 23.9955 4.70556 23.9955H19.2937C21.879 23.9955 23.994 21.8805 23.994 19.2952V4.70706C23.994 2.12185 21.879 0.00601196 19.2937 0.00601196H4.70556ZM5.88795 3.96476C7.1275 3.96476 7.89101 4.77851 7.91458 5.84816C7.91458 6.8942 7.12745 7.73082 5.86397 7.73082H5.84072C4.62476 7.73082 3.83883 6.89425 3.83883 5.84816C3.83883 4.77853 4.64854 3.96476 5.88792 3.96476H5.88795ZM16.5699 8.9642C18.9538 8.9642 20.7408 10.5223 20.7408 13.8707V20.1214H17.118V14.2898C17.118 12.8243 16.5936 11.8245 15.2825 11.8245C14.2816 11.8245 13.685 12.4984 13.4231 13.1494C13.3274 13.3823 13.3039 13.7075 13.3039 14.0333V20.1214H9.68103C9.68103 20.1214 9.72857 10.2427 9.68103 9.21985H13.3046V10.7636C13.7861 10.0208 14.6473 8.96418 16.5699 8.96418V8.9642ZM4.05252 9.22064H7.6754V20.1215H4.05252V9.22064V9.22064Z" fill="#E5E5E5"/>
</svg>
